<!-- Generated by IcoMoon.io -->
<svg version="1.1" xmlns="http://www.w3.org/2000/svg" width="18" height="32" viewBox="0 0 18 32">
<title>Facebook_head</title>
<path fill="#3cbce3" d="M0 15.232h4.535v16.768h6.089v-16.768h5.605l1.555-4.452h-7.161v-2.635c-0.015-0.12-0.023-0.259-0.023-0.399 0-0.774 0.256-1.488 0.688-2.061l-0.006 0.009c0.588-0.469 1.341-0.753 2.161-0.753 0.058 0 0.115 0.001 0.172 0.004l-0.008-0c1.101 0.126 2.087 0.54 2.904 1.164l-0.014-0.010 1.24-4.684c-1.591-0.681-3.437-1.173-5.366-1.385l-0.088-0.008c-0.118-0.005-0.258-0.007-0.397-0.007-1.598 0-3.117 0.342-4.486 0.958l0.069-0.028c-1.116 0.669-1.976 1.667-2.456 2.859l-0.014 0.039c-0.324 0.942-0.511 2.027-0.511 3.157 0 0.363 0.019 0.721 0.057 1.074l-0.004-0.044v2.755h-4.541v4.452z"></path>
</svg>
