<!-- Generated by IcoMoon.io -->
<svg version="1.1" xmlns="http://www.w3.org/2000/svg" width="32" height="32" viewBox="0 0 32 32">
<title>GooglePlus</title>
<path fill="#22b3df" d="M28.543 8.501v3.336h-1.708v-3.336h-3.342v-1.771h3.342v-3.322h1.708v3.322h3.361v1.78h-3.361zM16.060 1.661c1.686 1.303 2.82 3.25 3.032 5.465l0.002 0.032c-0.2 2.713-1.808 5.010-4.091 6.177l-0.043 0.020c-1.098 1.454-1.292 2.781 1.034 4.233s4.52 4.104 4.52 6.003c0 4.235-3.615 8.403-11.172 8.403s-9.363-3.854-9.363-6.128c0-5.37 7.817-7.014 9.945-7.014 0.477 0 0.934 0.012 1.356 0.031-0.699-0.685-1.139-1.631-1.163-2.681l-0-0.004c0.013-0.554 0.11-1.081 0.279-1.575l-0.011 0.037c-0.246 0.014-0.508 0.021-0.782 0.021-0.118 0.007-0.257 0.011-0.396 0.011-3.899 0-7.077-3.086-7.225-6.948l-0-0.013c0-3.854 4.067-7.709 10.33-7.709h8.913l-2.666 1.643h-2.501zM3.727 24.928c0 4.36 5.423 5.118 7.817 5.118 6.521 0.127 7.297-5.814 3.615-8.341-0.834-0.573-1.771-1.135-2.607-1.759-0.141 0-0.283 0-0.428 0-1.618-0.006-8.397 0.625-8.397 4.985zM14.572 5.995c-1.368-3.713-3.856-4.96-6.093-4.178s-3.365 3.291-2.007 7.010 3.856 4.96 6.091 4.178 3.375-3.287 2.007-7.006z"></path>
</svg>
