<!-- Generated by IcoMoon.io -->
<svg version="1.1" xmlns="http://www.w3.org/2000/svg" width="32" height="32" viewBox="0 0 32 32">
<title>HomepageIcons</title>
<path fill="#b7b7b7" d="M16 32c-8.837 0-16-7.163-16-16s7.163-16 16-16c8.837 0 16 7.163 16 16v0c-0.011 8.832-7.168 15.989-15.999 16h-0.001zM16.734 15.265h6.289c-0.062-2.264-0.418-4.42-1.031-6.465l0.045 0.176h-5.304v6.29zM23.023 16.733h-6.289v6.275h5.307c0.565-1.865 0.919-4.016 0.98-6.24l0.001-0.034zM30.514 16.733h-6.071c-0.059 2.256-0.393 4.409-0.969 6.46l0.044-0.185h5.206c1.021-1.81 1.67-3.954 1.787-6.239l0.001-0.035zM27.831 24.427h-4.748c-0.707 2.066-1.609 3.857-2.716 5.498l0.052-0.082c3.061-1.003 5.6-2.897 7.383-5.372l0.030-0.043zM18.289 30.351c1.347-1.695 2.458-3.656 3.239-5.777l0.047-0.146h-4.84v6.085c0.579-0.029 1.114-0.087 1.64-0.171l-0.085 0.011zM15.266 30.513v-6.086h-5.195c0.817 2.238 1.909 4.175 3.263 5.896l-0.034-0.045c0.567 0.114 1.242 0.198 1.93 0.235l0.037 0.002zM11.125 29.69c-1.008-1.515-1.876-3.255-2.515-5.101l-0.049-0.162h-4.39c1.721 2.391 4.092 4.217 6.855 5.231l0.101 0.033zM3.272 23.008h4.856c-0.532-1.866-0.866-4.019-0.924-6.24l-0.001-0.035h-5.715c0.118 2.32 0.766 4.465 1.825 6.348l-0.037-0.073zM1.483 15.265h5.719c0.060-2.262 0.395-4.419 0.974-6.475l-0.045 0.185h-4.849c-1.026 1.815-1.677 3.965-1.794 6.256l-0.001 0.035zM4.179 7.556h4.386c0.687-2.002 1.552-3.737 2.61-5.332l-0.053 0.085c-2.856 1.045-5.221 2.865-6.91 5.205l-0.030 0.043zM15.263 1.485c-0.723 0.038-1.397 0.122-2.056 0.25l0.092-0.015c-1.316 1.671-2.405 3.603-3.174 5.689l-0.047 0.146h5.188v-6.071zM15.263 8.975h-5.652c-0.568 1.87-0.923 4.026-0.985 6.256l-0.001 0.034h6.64v-6.29zM8.623 16.733c0.062 2.258 0.416 4.41 1.026 6.45l-0.045-0.176h5.662v-6.274h-6.64zM16.731 1.486v6.070h4.835c-0.827-2.262-1.936-4.218-3.312-5.952l0.033 0.044c-0.44-0.073-0.975-0.131-1.517-0.159l-0.036-0.002zM20.416 2.154c1.052 1.555 1.952 3.341 2.61 5.239l0.049 0.162h4.743c-1.811-2.51-4.345-4.398-7.295-5.371l-0.103-0.029zM28.714 8.975h-5.2c0.534 1.871 0.87 4.029 0.928 6.255l0.001 0.035h6.070c-0.119-2.325-0.77-4.475-1.833-6.361l0.037 0.072z"></path>
</svg>
