<!-- Generated by IcoMoon.io -->
<svg version="1.1" xmlns="http://www.w3.org/2000/svg" width="38" height="32" viewBox="0 0 38 32">
<title>Lifestyle</title>
<path fill="#b7b7b7" d="M37.382 14.067c-0.348-0.535-0.761-0.992-1.236-1.375l-0.011-0.009-3.763-9.834c-0.791-1.55-2.293-2.639-4.063-2.843l-0.024-0.002h-18.471c-1.795 0.206-3.296 1.295-4.074 2.816l-0.014 0.030-3.768 9.834c-0.486 0.392-0.899 0.848-1.233 1.361l-0.014 0.022c-0.334 0.652-0.698 1.223-0.698 5.583 0 4.251 0.869 5.764 1.92 6.287l0.827 0.456v3.947c0 1.28 0.311 1.661 1.558 1.661h2.797c1.247 0 1.558-0.381 1.558-1.661v-3.947h20.744v3.947c0 1.28 0.312 1.661 1.558 1.661h2.798c1.247 0 1.558-0.381 1.558-1.661v-3.947l0.826-0.456c1.047-0.523 1.92-2.036 1.92-6.287 0-4.36-0.364-4.935-0.698-5.583zM7.375 21.698c-0 0-0.001 0-0.001 0-1.342 0-2.43-1.088-2.43-2.43s1.088-2.43 2.43-2.43c1.342 0 2.43 1.088 2.43 2.43v0c-0.002 1.341-1.088 2.428-2.429 2.43h-0zM30.806 21.698c-1.342 0-2.43-1.088-2.43-2.43s1.088-2.43 2.43-2.43c1.342 0 2.43 1.088 2.43 2.43v0c-0.002 1.341-1.089 2.428-2.43 2.43h-0zM33.508 12.685h-28.929c-0.024 0.004-0.051 0.007-0.080 0.007-0.254 0-0.459-0.206-0.459-0.459 0-0.083 0.022-0.16 0.060-0.227l-0.001 0.002c0.177-0.625 2.663-6.8 3.185-8.495 0.565-1.091 1.685-1.824 2.976-1.824 0.023 0 0.045 0 0.068 0.001l-0.003-0h17.45c0.019-0 0.042-0.001 0.064-0.001 1.291 0 2.412 0.733 2.967 1.805l0.009 0.019c0.522 1.695 3.008 7.869 3.185 8.495 0.037 0.065 0.058 0.142 0.058 0.224 0 0.254-0.206 0.46-0.46 0.46-0.032 0-0.063-0.003-0.093-0.009l0.003 0.001z"></path>
</svg>
