<!-- Generated by IcoMoon.io -->
<svg version="1.1" xmlns="http://www.w3.org/2000/svg" width="34" height="32" viewBox="0 0 34 32">
<title>LinkedIn</title>
<path fill="#22b3df" d="M26.977 31.991v-11.566c0-2.874-0.722-4.89-3.23-4.89-0.095-0.009-0.206-0.015-0.318-0.015-1.632 0-3 1.13-3.363 2.651l-0.005 0.024c-0.145 0.517-0.228 1.111-0.228 1.724 0 0.003 0 0.006 0 0.009v-0 12.067h-7.143l0.019-21.507h6.972l0.057 3.1h0.133c1.182-2.167 3.444-3.613 6.043-3.613 0.080 0 0.159 0.001 0.238 0.004l-0.011-0c4.559 0 8.036 3.055 8.036 9.624v12.387h-7.2zM0.133 10.532h7.2v21.456h-7.2v-21.456zM3.591 7.43c-2.042-0.009-3.693-1.666-3.693-3.708 0-2.048 1.66-3.708 3.708-3.708s3.708 1.66 3.708 3.708c0 0.001 0 0.001 0 0.002v-0c0.003 0.051 0.004 0.112 0.004 0.172 0 1.956-1.585 3.541-3.541 3.541-0.066 0-0.131-0.002-0.196-0.005l0.009 0z"></path>
</svg>
