<!-- Generated by IcoMoon.io -->
<svg version="1.1" xmlns="http://www.w3.org/2000/svg" width="32" height="32" viewBox="0 0 32 32">
<title>ResourceIcons</title>
<path fill="#b7b7b7" d="M16 32c-8.837 0-16-7.163-16-16s7.163-16 16-16c8.837 0 16 7.163 16 16v0c-0.012 8.832-7.168 15.988-15.999 16h-0.001zM16 1.464c-8.026 0.001-14.532 6.508-14.532 14.534s6.507 14.534 14.534 14.534 14.534-6.507 14.534-14.534v0c-0.008-8.024-6.511-14.526-14.535-14.532h-0zM17.956 24.773h-3.911v-6.819h-6.821v-3.912h6.82v-6.819h3.911v6.819h6.817v3.912h-6.817v6.819z"></path>
</svg>
