<!-- Generated by IcoMoon.io -->
<svg version="1.1" xmlns="http://www.w3.org/2000/svg" width="32" height="32" viewBox="0 0 32 32">
<title>RSS-feed</title>
<path fill="#22b3df" d="M26.595 31.976c-0.168-14.611-11.961-26.413-26.553-26.595l-0.017-0v-5.348c0.087-0.001 0.189-0.001 0.292-0.001 17.468 0 31.628 14.16 31.628 31.628 0 0.114-0.001 0.228-0.002 0.342l0-0.017h-5.348zM21.367 31.976h-5.444c-0.114-4.453-1.912-8.465-4.777-11.442l0.005 0.005c-2.878-2.783-6.801-4.501-11.125-4.511h-0.002v-5.516c11.797 0.045 21.343 9.619 21.343 21.422 0 0.012 0 0.024-0 0.036v-0.002zM4.436 23.134c0.007-0 0.016-0 0.024-0 2.45 0 4.436 1.986 4.436 4.436s-1.986 4.436-4.436 4.436c-2.45 0-4.436-1.986-4.436-4.436v0c0-0.001 0-0.003 0-0.005 0-2.442 1.972-4.424 4.411-4.439h0.001z"></path>
</svg>
