<!-- Generated by IcoMoon.io -->
<svg version="1.1" xmlns="http://www.w3.org/2000/svg" width="30" height="32" viewBox="0 0 30 32">
<title>ScriptsDownload</title>
<path fill="#b7b7b7" d="M25.509 17.851h4.655l-8.166 14.149-5.721-9.908h-16.276v-22.092h22.088v10.265h3.424v0.715l-0.008 6.865zM16.331 1.025h-11.371v7.182c-0.002 0.011-0.003 0.024-0.003 0.037 0 0.109 0.068 0.203 0.164 0.241l0.002 0.001h11.045c0.098-0.039 0.166-0.132 0.166-0.242 0-0.013-0.001-0.026-0.003-0.038l0 0.001v-7.182zM20.652 1.44h-2.883v6.767c0.001 0.016 0.001 0.035 0.001 0.055 0 0.897-0.71 1.628-1.599 1.663l-0.003 0h-11.045c-0.892-0.034-1.602-0.766-1.602-1.663 0-0.019 0-0.038 0.001-0.057l-0 0.003v-6.767h-2.085v19.215h14.005l-1.617-2.8h4.216v-7.585h2.613v-8.824zM24.126 18.575v-6.869h-4.641v7.584h-3.163l5.68 9.817 5.687-9.82h-3.555zM11.526 2.508h2.909v5.258h-2.909v-5.258z"></path>
</svg>
