<!-- Generated by IcoMoon.io -->
<svg version="1.1" xmlns="http://www.w3.org/2000/svg" width="40" height="32" viewBox="0 0 40 32">
<title>Search</title>
<path fill="#b7b7b7" d="M39.113 30.62c-0.585 0.837-1.545 1.378-2.631 1.378-0.681 0-1.312-0.213-1.83-0.575l0.010 0.007-13.149-9.101c-0.84-0.587-1.383-1.551-1.383-2.64 0-0.036 0.001-0.071 0.002-0.106l-0 0.005c-2.129 2.269-5.146 3.683-8.494 3.683-5.689 0-10.425-4.083-11.437-9.478l-0.011-0.072c-0.119-0.624-0.187-1.342-0.187-2.076 0-6.427 5.21-11.636 11.636-11.636s11.636 5.21 11.636 11.636c0 1.859-0.436 3.616-1.211 5.175l0.030-0.068c0.366-0.159 0.792-0.252 1.24-0.252 0.679 0 1.308 0.213 1.825 0.576l-0.010-0.007 13.164 9.101c0.837 0.582 1.377 1.539 1.377 2.622 0 0.685-0.216 1.319-0.584 1.838l0.007-0.010zM19.622 10.182c-0.714-3.813-4.017-6.66-7.985-6.66-4.483 0-8.116 3.634-8.116 8.116s3.634 8.116 8.116 8.116c2.756 0 5.191-1.374 6.658-3.474l0.017-0.026c0.903-1.287 1.442-2.885 1.442-4.61 0-0.517-0.049-1.023-0.141-1.513l0.008 0.050z"></path>
</svg>
