<!-- Generated by IcoMoon.io -->
<svg version="1.1" xmlns="http://www.w3.org/2000/svg" width="45" height="32" viewBox="0 0 45 32">
<title>Tel</title>
<path fill="#b7b7b7" d="M45.399 8.427c-0.021-0.933-0.229-4.94-2.167-5.678-3.992-1.531-13.855-2.748-20.518-2.748s-16.534 1.219-20.526 2.746c-1.94 0.744-2.146 4.755-2.169 5.678-0.014 0.1-0.022 0.216-0.022 0.334 0 0.157 0.014 0.31 0.042 0.459l-0.002-0.016 0.379 1.893c0.18 0.889 0.955 1.549 1.885 1.549 0.129 0 0.256-0.013 0.378-0.037l-0.012 0.002 8.752-1.704c0.889-0.18 1.549-0.955 1.549-1.885 0-0.129-0.013-0.254-0.037-0.376l0.002 0.012-0.454-2.349c0.806-0.112 1.616-0.22 2.417-0.316l-0.261 3.801s-13.060 6.958-13.060 9.546v12.636h42.257v-12.61c0-2.502-13.060-9.546-13.060-9.546l-0.261-3.801c0.803 0.098 1.613 0.204 2.419 0.316l-0.454 2.349c-0.023 0.11-0.035 0.237-0.035 0.367 0 0.929 0.66 1.703 1.537 1.88l0.012 0.002 8.752 1.704c0.11 0.023 0.237 0.035 0.367 0.035 0.929 0 1.703-0.66 1.88-1.537l0.002-0.012 0.379-1.893c0.032-0.151 0.050-0.324 0.050-0.502 0-0.106-0.006-0.21-0.019-0.313l0.001 0.012zM22.714 5.436c0.812 0 3.924 0.146 4.846 0.263 0-0.017-0.301 3.755-0.309 3.744h-9.080l-0.284-3.746c1.76-0.163 3.409-0.261 4.827-0.261zM22.714 26.825c-2.963-0.22-5.283-2.677-5.283-5.677 0-3.143 2.548-5.692 5.692-5.692s5.691 2.547 5.692 5.69v0c-0.124 3.161-2.716 5.676-5.896 5.676-0.072 0-0.144-0.001-0.215-0.004l0.010 0z"></path>
</svg>
