<!-- Generated by IcoMoon.io -->
<svg version="1.1" xmlns="http://www.w3.org/2000/svg" width="41" height="32" viewBox="0 0 41 32">
<title>Twitter_head</title>
<path fill="#22b3df" d="M40.523 3.789c-1.391 0.616-3.004 1.064-4.693 1.265l-0.080 0.008c1.709-0.998 3-2.553 3.638-4.411l0.017-0.057c-1.519 0.892-3.285 1.573-5.163 1.944l-0.108 0.018c-1.531-1.576-3.67-2.554-6.038-2.554-0.014 0-0.029 0-0.043 0h0.002c-0.034-0.001-0.075-0.001-0.116-0.001-4.486 0-8.13 3.603-8.197 8.074l-0 0.006c0 0.003 0 0.006 0 0.010 0 0.65 0.078 1.281 0.226 1.885l-0.011-0.054c-6.882-0.324-12.958-3.519-17.101-8.406l-0.029-0.035c-0.709 1.159-1.129 2.561-1.129 4.062v0c0.010 2.813 1.468 5.283 3.667 6.705l0.031 0.019c-1.386-0.043-2.676-0.412-3.809-1.033l0.044 0.022v0.102c0.044 3.94 2.879 7.205 6.618 7.915l0.051 0.008c-0.656 0.18-1.41 0.283-2.188 0.283-0.558 0-1.103-0.053-1.631-0.155l0.054 0.009c1.139 3.271 4.181 5.583 7.768 5.619l0.004 0c-2.819 2.158-6.395 3.458-10.274 3.458-0.018 0-0.036-0-0.053-0h0.003c-0 0-0 0-0.001 0-0.699 0-1.388-0.041-2.065-0.121l0.082 0.008c3.603 2.272 7.986 3.62 12.684 3.62 0.021 0 0.042-0 0.063-0h-0.003c0.149 0.003 0.325 0.005 0.501 0.005 12.729 0 23.059-10.273 23.152-22.98l0-0.009q0-0.525-0.023-1.045c1.631-1.153 3.006-2.54 4.111-4.128l0.036-0.054z"></path>
</svg>
