<!-- Generated by IcoMoon.io -->
<svg version="1.1" xmlns="http://www.w3.org/2000/svg" width="32" height="32" viewBox="0 0 32 32">
<title>WebDesigns</title>
<path fill="#b7b7b7" d="M0 30.656l30.655-30.656h1.345l-32 32v-1.344zM25.919 0h1.345l-27.264 27.264v-1.344zM21.119 0h1.345l-22.464 22.464v-1.344zM16.319 0h1.345l-17.664 17.664v-1.344zM11.519 0h1.345l-12.864 12.864v-1.344zM6.656 0h1.344l-8 8v-1.344zM1.919 0h1.345l-3.264 3.264v-1.344zM3.776 32l28.224-28.224v1.344l-26.881 26.88h-1.343zM8.896 32l23.104-23.104v1.344l-21.76 21.76h-1.344zM14.047 32l17.953-17.952v1.344l-16.608 16.608h-1.345zM19.168 32l12.832-12.832v1.344l-11.488 11.488h-1.344zM24.351 32l7.649-7.648v1.345l-6.303 6.303h-1.345zM29.472 32l2.528-2.528v1.344l-1.185 1.184h-1.343z"></path>
</svg>
