<!-- Generated by IcoMoon.io -->
<svg version="1.1" xmlns="http://www.w3.org/2000/svg" width="27" height="32" viewBox="0 0 27 32">
<title>Youtube_head</title>
<path fill="#3cbce3" d="M22.551 23.407h-1.769l0.019-1.020c0.004-0.455 0.373-0.822 0.828-0.824h0.113c0.455 0.002 0.824 0.37 0.828 0.824v0zM15.962 21.222c-0.018-0.002-0.040-0.003-0.061-0.003-0.386 0-0.704 0.291-0.748 0.665l-0 0.003v4.962c0.076 0.383 0.41 0.668 0.809 0.668s0.733-0.285 0.809-0.662l0.001-0.005v-4.964c-0.045-0.377-0.362-0.667-0.748-0.667-0.022 0-0.043 0.001-0.064 0.003l0.003-0zM26.654 18.447v9.438c-0.078 2.29-1.952 4.116-4.254 4.116-0.040 0-0.080-0.001-0.119-0.002l0.006 0h-17.92c-0.030 0.001-0.065 0.001-0.1 0.001-2.301 0-4.175-1.828-4.248-4.111l-0-0.007v-9.436c0.074-2.29 1.947-4.118 4.248-4.118 0.035 0 0.070 0 0.105 0.001l-0.005-0h17.92c0.034-0.001 0.073-0.002 0.113-0.002 2.302 0 4.177 1.828 4.254 4.111l0 0.007zM5.572 28.909v-9.943h2.221v-1.472h-5.929v1.448h1.845v9.976h1.864zM12.216 20.448h-1.845v5.308c0.016 0.193 0.024 0.417 0.024 0.644s-0.009 0.451-0.026 0.673l0.002-0.029c-0.151 0.412-0.828 0.849-1.092 0.045-0.038-0.141 0-0.565 0-1.295l-0.019-5.346h-1.845l0.019 5.261c0 0.806-0.019 1.408 0 1.681-0.006 0.053-0.009 0.115-0.009 0.178 0 0.462 0.183 0.881 0.48 1.189l-0-0c0.262 0.115 0.568 0.183 0.889 0.183 0.829 0 1.554-0.447 1.947-1.113l0.006-0.011-0.019 1.096h1.487v-8.463zM18.146 26.528v-4.42c0-1.685-1.261-2.692-2.974-1.331l0.019-3.285h-1.864v11.339l1.525-0.023 0.132-0.706c1.939 1.788 3.162 0.565 3.162-1.577zM23.944 25.943h-1.393v0.975c0 0.416-0.337 0.753-0.753 0.753v0h-0.282c-0.416 0-0.753-0.337-0.753-0.753v0-2.046h3.181v-1.197c0.002-0.109 0.004-0.238 0.004-0.367 0-0.666-0.035-1.325-0.105-1.973l0.007 0.081c-0.226-1.583-2.447-1.835-3.576-1.024-0.355 0.258-0.624 0.616-0.767 1.032l-0.004 0.015c-0.145 0.499-0.229 1.072-0.229 1.665 0 0.071 0.001 0.142 0.004 0.213l-0-0.010v2.635c0 4.386 5.308 3.767 4.668 0zM16.828 11.637c0.093 0.23 0.242 0.421 0.43 0.562l0.003 0.002c0.207 0.133 0.459 0.211 0.729 0.211 0.015 0 0.030-0 0.045-0.001l-0.002 0c0.006 0 0.013 0 0.020 0 0.254 0 0.489-0.083 0.68-0.223l-0.003 0.002c0.229-0.17 0.409-0.394 0.523-0.654l0.004-0.010-0.038 0.727h2.071v-8.791h-1.638v6.84c0 0.369-0.299 0.668-0.668 0.668s-0.668-0.299-0.668-0.668v-6.84h-1.713v5.929c0 0.753 0.019 1.259 0.038 1.506 0.037 0.276 0.103 0.526 0.196 0.762l-0.008-0.022zM10.56 6.673c-0.002-0.066-0.004-0.144-0.004-0.223 0-0.624 0.084-1.228 0.241-1.801l-0.011 0.048c0.122-0.467 0.388-0.86 0.748-1.137l0.005-0.004c0.358-0.271 0.81-0.435 1.301-0.435 0.032 0 0.065 0.001 0.097 0.002l-0.005-0c0.022-0.001 0.049-0.001 0.075-0.001 0.42 0 0.815 0.103 1.162 0.286l-0.014-0.007c0.335 0.167 0.608 0.413 0.805 0.713l0.005 0.008c0.166 0.263 0.296 0.568 0.373 0.895l0.004 0.020c0.063 0.353 0.099 0.759 0.099 1.174 0 0.093-0.002 0.187-0.005 0.279l0-0.013v2.223c0.003 0.102 0.005 0.221 0.005 0.341 0 0.513-0.036 1.018-0.106 1.511l0.007-0.057c-0.061 0.402-0.2 0.762-0.402 1.078l0.007-0.011c-0.194 0.317-0.47 0.568-0.798 0.725l-0.011 0.005c-0.31 0.149-0.674 0.236-1.058 0.236-0.018 0-0.037-0-0.055-0.001l0.003 0c-0.028 0.001-0.061 0.001-0.094 0.001-0.393 0-0.768-0.074-1.112-0.21l0.021 0.007c-0.32-0.125-0.583-0.336-0.768-0.604l-0.004-0.006c-0.182-0.283-0.319-0.613-0.392-0.967l-0.003-0.019c-0.074-0.451-0.116-0.971-0.116-1.501 0-0.082 0.001-0.164 0.003-0.245l-0 0.012v-2.325zM12.179 10.165c-0 0.009-0.001 0.020-0.001 0.031 0 0.467 0.366 0.848 0.827 0.872l0.002 0c0.453-0.026 0.811-0.4 0.811-0.857 0-0.016-0-0.033-0.001-0.049l0 0.002v-4.678c0.001-0.014 0.001-0.030 0.001-0.046 0-0.457-0.358-0.831-0.808-0.857l-0.002-0c-0.463 0.024-0.829 0.406-0.829 0.872 0 0.011 0 0.022 0.001 0.033l-0-0.002v4.678zM6.475 12.527h1.939v-6.741l2.315-5.775h-2.146l-1.224 4.29-1.242-4.301h-2.108l2.466 5.79v6.739z"></path>
</svg>
