<svg id="calendar" xmlns="http://www.w3.org/2000/svg" width="128" height="125" viewBox="0 0 128 125">
  <metadata><?xpacket begin="﻿" id="W5M0MpCehiHzreSzNTczkc9d"?>
<x:xmpmeta xmlns:x="adobe:ns:meta/" x:xmptk="Adobe XMP Core 5.6-c142 79.160924, 2017/07/13-01:06:39        ">
   <rdf:RDF xmlns:rdf="http://www.w3.org/1999/02/22-rdf-syntax-ns#">
      <rdf:Description rdf:about=""/>
   </rdf:RDF>
</x:xmpmeta>
                                                                                                    
                                                                                                    
                                                                                                    
                                                                                                    
                                                                                                    
                                                                                                    
                                                                                                    
                                                                                                    
                                                                                                    
                                                                                                    
                                                                                                    
                                                                                                    
                                                                                                    
                                                                                                    
                                                                                                    
                                                                                                    
                                                                                                    
                                                                                                    
                                                                                                    
                                                                                                    
                           
<?xpacket end="w"?></metadata>
<defs>
    <style>
      .cls-1 {
        fill: #f1f1f1;
      }

      .cls-1, .cls-4, .cls-5, .cls-7 {
        fill-rule: evenodd;
      }

      .cls-2 {
        font-size: 60px;
        fill: #5f5f5f;
        font-family: SourceSansPro;
        font-weight: 700;
      }

      .cls-3 {
        fill: #379bee;
      }

      .cls-4 {
        opacity: 0.35;
      }

      .cls-5 {
        fill: #dfdfdf;
      }

      .cls-6 {
        fill: #1a2a57;
      }

      .cls-7 {
        fill: #fff;
      }
    </style>
  </defs>
  <path id="Rounded_Rectangle_3" data-name="Rounded Rectangle 3" class="cls-1" d="M6,13H122a6,6,0,0,1,6,6V119a6,6,0,0,1-6,6H6a6,6,0,0,1-6-6V19A6,6,0,0,1,6,13Zm122,87-25,25h25V100Z"/>
  <text id="_20" data-name="20" class="cls-2" x="34" y="100">20</text>
  <rect class="cls-3" y="13" width="128" height="32"/>
  <path id="Shape_3_copy_3" data-name="Shape 3 copy 3" class="cls-4" d="M103,125H78l25-25v25Z"/>
  <path id="Shape_3_copy_2" data-name="Shape 3 copy 2" class="cls-5" d="M103,100h25l-25,25V100Z"/>
  <circle id="Ellipse_1_copy_2" data-name="Ellipse 1 copy 2" class="cls-6" cx="103.5" cy="26.5" r="7.5"/>
  <path id="Rounded_Rectangle_4" data-name="Rounded Rectangle 4" class="cls-7" d="M103.5,0A4.5,4.5,0,0,1,108,4.5v19a4.5,4.5,0,0,1-9,0V4.5A4.5,4.5,0,0,1,103.5,0Z"/>
  <circle id="Ellipse_1_copy_3" data-name="Ellipse 1 copy 3" class="cls-6" cx="28.5" cy="26.5" r="7.5"/>
  <path id="Rounded_Rectangle_4_copy" data-name="Rounded Rectangle 4 copy" class="cls-7" d="M28.5,0A4.5,4.5,0,0,1,33,4.5v19a4.5,4.5,0,0,1-9,0V4.5A4.5,4.5,0,0,1,28.5,0Z"/>
</svg>
