<svg xmlns="http://www.w3.org/2000/svg" width="34" height="34" viewBox="0 0 34 34">
  <metadata><?xpacket begin="﻿" id="W5M0MpCehiHzreSzNTczkc9d"?>
<x:xmpmeta xmlns:x="adobe:ns:meta/" x:xmptk="Adobe XMP Core 5.6-c142 79.160924, 2017/07/13-01:06:39        ">
   <rdf:RDF xmlns:rdf="http://www.w3.org/1999/02/22-rdf-syntax-ns#">
      <rdf:Description rdf:about=""/>
   </rdf:RDF>
</x:xmpmeta>
                                                                                                    
                                                                                                    
                                                                                                    
                                                                                                    
                                                                                                    
                                                                                                    
                                                                                                    
                                                                                                    
                                                                                                    
                                                                                                    
                                                                                                    
                                                                                                    
                                                                                                    
                                                                                                    
                                                                                                    
                                                                                                    
                                                                                                    
                                                                                                    
                                                                                                    
                                                                                                    
                           
<?xpacket end="w"?></metadata>
<defs>
    <style>
      .cls-1 {
        fill: #b7b7b7;
        fill-rule: evenodd;
      }
    </style>
  </defs>
  <path id="Homepage_Icons" data-name="Homepage Icons" class="cls-1" d="M55,147a17,17,0,1,1,17-17A17.021,17.021,0,0,1,55,147Zm0.78-17.781h6.682a26.347,26.347,0,0,0-1.047-6.683H55.78v6.683Zm6.682,1.56H55.78v6.667h5.639A26.356,26.356,0,0,0,62.461,130.78Zm7.959,0H63.971a27.955,27.955,0,0,1-.982,6.667H68.52A15.333,15.333,0,0,0,70.42,130.78Zm-2.851,8.175H62.525a24.47,24.47,0,0,1-2.831,5.755A15.5,15.5,0,0,0,67.57,138.955Zm-10.138,6.294a22.418,22.418,0,0,0,3.491-6.294H55.78v6.465A15.748,15.748,0,0,0,57.432,145.249Zm-3.212.172v-6.466H48.7a22.438,22.438,0,0,0,3.43,6.216A15.553,15.553,0,0,0,54.22,145.421Zm-4.4-.874a24.516,24.516,0,0,1-2.724-5.592H42.432A15.516,15.516,0,0,0,49.823,144.547Zm-8.344-7.1h5.159a27.961,27.961,0,0,1-.983-6.667H39.58A15.335,15.335,0,0,0,41.479,137.447Zm-1.9-8.227h6.076a27.944,27.944,0,0,1,.988-6.683H41.488A15.332,15.332,0,0,0,39.58,129.22Zm2.864-8.191H47.1a24.5,24.5,0,0,1,2.717-5.575A15.508,15.508,0,0,0,42.444,121.029Zm11.777-6.45a15.562,15.562,0,0,0-2.086.25,22.433,22.433,0,0,0-3.423,6.2H54.22v-6.45Zm0,7.958H48.212a26.338,26.338,0,0,0-1.047,6.683H54.22v-6.683Zm-7.055,8.243a26.347,26.347,0,0,0,1.042,6.667H54.22V130.78H47.165Zm8.615-16.2v6.449h5.137a22.421,22.421,0,0,0-3.484-6.278A15.764,15.764,0,0,0,55.78,114.58Zm3.915,0.71a24.5,24.5,0,0,1,2.825,5.739h5.039A15.506,15.506,0,0,0,59.695,115.29Zm8.817,7.247H62.984a27.944,27.944,0,0,1,.987,6.683H70.42A15.332,15.332,0,0,0,68.512,122.537Z" transform="translate(-38 -113)"/>
</svg>
