<svg xmlns="http://www.w3.org/2000/svg" width="85.719" height="85.719" viewBox="0 0 85.719 85.719">
  <metadata><?xpacket begin="﻿" id="W5M0MpCehiHzreSzNTczkc9d"?>
<x:xmpmeta xmlns:x="adobe:ns:meta/" x:xmptk="Adobe XMP Core 5.6-c142 79.160924, 2017/07/13-01:06:39        ">
   <rdf:RDF xmlns:rdf="http://www.w3.org/1999/02/22-rdf-syntax-ns#">
      <rdf:Description rdf:about=""/>
   </rdf:RDF>
</x:xmpmeta>
                                                                                                    
                                                                                                    
                                                                                                    
                                                                                                    
                                                                                                    
                                                                                                    
                                                                                                    
                                                                                                    
                                                                                                    
                                                                                                    
                                                                                                    
                                                                                                    
                                                                                                    
                                                                                                    
                                                                                                    
                                                                                                    
                                                                                                    
                                                                                                    
                                                                                                    
                                                                                                    
                           
<?xpacket end="w"?></metadata>
<defs>
    <style>
      .cls-1 {
        fill: #fff;
        fill-rule: evenodd;
      }
    </style>
  </defs>
  <path id="icons_quote" data-name="icons quote" class="cls-1" d="M152.729,264.946v42.783H109.865a42.866,42.866,0,1,1,42.865-42.866C152.73,264.892,152.729,264.919,152.729,264.946Zm-58.012.314-3.169,3.17c-4.665,4.664-4.838,11.8-.4,16.241s11.576,4.268,16.24-.4l3.17-3.17a11.666,11.666,0,0,0,2.959-12.2l-5.144,5.143a6.645,6.645,0,0,1-1.776,3.1l-3.17,3.17c-2.443,2.443-6.1,2.616-8.318.395s-2.048-5.874.4-8.318l3.169-3.169a6.647,6.647,0,0,1,3.1-1.777l5.144-5.143A11.665,11.665,0,0,0,94.717,265.26Zm25.483-5.677a2.8,2.8,0,1,0-3.961-3.961l-14.524,14.524a2.8,2.8,0,0,0,3.961,3.961Zm10.564-14.525c-4.443-4.442-11.576-4.268-16.241.4l-3.169,3.17a11.662,11.662,0,0,0-2.959,12.2l5.143-5.143a6.647,6.647,0,0,1,1.777-3.1l3.169-3.169c2.444-2.444,6.1-2.617,8.319-.4s2.047,5.874-.4,8.318l-3.17,3.169a6.647,6.647,0,0,1-3.1,1.777L115,267.427a11.663,11.663,0,0,0,12.2-2.958l3.17-3.17C135.032,256.635,135.206,249.5,130.764,245.058Z" transform="translate(-67 -222)"/>
</svg>
