<svg xmlns="http://www.w3.org/2000/svg" width="35.062" height="29.469" viewBox="0 0 35.062 29.469">
  <metadata><?xpacket begin="﻿" id="W5M0MpCehiHzreSzNTczkc9d"?>
<x:xmpmeta xmlns:x="adobe:ns:meta/" x:xmptk="Adobe XMP Core 5.6-c142 79.160924, 2017/07/13-01:06:39        ">
   <rdf:RDF xmlns:rdf="http://www.w3.org/1999/02/22-rdf-syntax-ns#">
      <rdf:Description rdf:about=""/>
   </rdf:RDF>
</x:xmpmeta>
                                                                                                    
                                                                                                    
                                                                                                    
                                                                                                    
                                                                                                    
                                                                                                    
                                                                                                    
                                                                                                    
                                                                                                    
                                                                                                    
                                                                                                    
                                                                                                    
                                                                                                    
                                                                                                    
                                                                                                    
                                                                                                    
                                                                                                    
                                                                                                    
                                                                                                    
                                                                                                    
                           
<?xpacket end="w"?></metadata>
<defs>
    <style>
      .cls-1 {
        fill: #b7b7b7;
        fill-rule: evenodd;
      }
    </style>
  </defs>
  <path id="Lifestyle" class="cls-1" d="M658.613,126.954a5.334,5.334,0,0,0-1.148-1.274L654,116.624h0a4.81,4.81,0,0,0-3.764-2.62h-17.01a4.809,4.809,0,0,0-3.764,2.62l-3.47,9.056a5.334,5.334,0,0,0-1.148,1.274c-0.308.6-.643,1.126-0.643,5.141,0,3.915.8,5.308,1.768,5.79l0.762,0.42v3.635c0,1.179.286,1.53,1.435,1.53h2.576c1.148,0,1.435-.351,1.435-1.53v-3.635H651.28v3.635c0,1.179.287,1.53,1.435,1.53h2.577c1.148,0,1.435-.351,1.435-1.53v-3.635l0.761-.42c0.964-.482,1.768-1.875,1.768-5.79C659.256,128.08,658.921,127.55,658.613,126.954Zm-27.633,7.028a2.238,2.238,0,1,1,2.237-2.238A2.241,2.241,0,0,1,630.98,133.982Zm21.577,0a2.238,2.238,0,1,1,2.238-2.238A2.241,2.241,0,0,1,652.557,133.982Zm2.489-8.3H628.405a0.423,0.423,0,0,1-.442-0.624c0.163-.576,2.452-6.262,2.933-7.823a3.076,3.076,0,0,1,2.8-1.679h16.07a3.076,3.076,0,0,1,2.8,1.679c0.481,1.561,2.77,7.247,2.933,7.823A0.424,0.424,0,0,1,655.046,125.68Z" transform="translate(-624.188 -114)"/>
</svg>
