<svg xmlns="http://www.w3.org/2000/svg" width="31.094" height="33" viewBox="0 0 31.094 33">
  <metadata><?xpacket begin="﻿" id="W5M0MpCehiHzreSzNTczkc9d"?>
<x:xmpmeta xmlns:x="adobe:ns:meta/" x:xmptk="Adobe XMP Core 5.6-c142 79.160924, 2017/07/13-01:06:39        ">
   <rdf:RDF xmlns:rdf="http://www.w3.org/1999/02/22-rdf-syntax-ns#">
      <rdf:Description rdf:about=""/>
   </rdf:RDF>
</x:xmpmeta>
                                                                                                    
                                                                                                    
                                                                                                    
                                                                                                    
                                                                                                    
                                                                                                    
                                                                                                    
                                                                                                    
                                                                                                    
                                                                                                    
                                                                                                    
                                                                                                    
                                                                                                    
                                                                                                    
                                                                                                    
                                                                                                    
                                                                                                    
                                                                                                    
                                                                                                    
                                                                                                    
                           
<?xpacket end="w"?></metadata>
<defs>
    <style>
      .cls-1 {
        fill: #b7b7b7;
        fill-rule: evenodd;
      }
    </style>
  </defs>
  <path id="Scripts_Download" data-name="Scripts Download" class="cls-1" d="M456.306,132.409h4.8L452.685,147l-5.9-10.218H430V114h22.778v10.586h3.531l0,0.737-0.008,7.08v0Zm-9.465-17.352H435.115v7.406a0.267,0.267,0,0,0,.168.287h11.39a0.267,0.267,0,0,0,.168-0.287v-7.406Zm4.456,0.428h-2.973v6.978a1.716,1.716,0,0,1-1.651,1.771h-11.39a1.716,1.716,0,0,1-1.651-1.771v-6.972l0-.006h-2.15V135.3h14.443l-1.668-2.888h4.348v-7.822H451.3v-9.1Zm3.583,17.67,0-7.084h-4.786v7.821h-3.253l-0.009,0,5.857,10.124,5.865-10.127h-3.666Zm-12.994-16.569h3v5.422h-3v-5.422Z" transform="translate(-430 -114)"/>
</svg>
