<svg xmlns="http://www.w3.org/2000/svg" width="24" height="16.906" viewBox="0 0 24 16.906">
  <metadata><?xpacket begin="﻿" id="W5M0MpCehiHzreSzNTczkc9d"?>
<x:xmpmeta xmlns:x="adobe:ns:meta/" x:xmptk="Adobe XMP Core 5.6-c142 79.160924, 2017/07/13-01:06:39        ">
   <rdf:RDF xmlns:rdf="http://www.w3.org/1999/02/22-rdf-syntax-ns#">
      <rdf:Description rdf:about=""/>
   </rdf:RDF>
</x:xmpmeta>
                                                                                                    
                                                                                                    
                                                                                                    
                                                                                                    
                                                                                                    
                                                                                                    
                                                                                                    
                                                                                                    
                                                                                                    
                                                                                                    
                                                                                                    
                                                                                                    
                                                                                                    
                                                                                                    
                                                                                                    
                                                                                                    
                                                                                                    
                                                                                                    
                                                                                                    
                                                                                                    
                           
<?xpacket end="w"?></metadata>
<defs>
    <style>
      .cls-1 {
        fill: #b7b7b7;
        fill-rule: evenodd;
      }
    </style>
  </defs>
  <path id="Tel_Icons" data-name="Tel Icons" class="cls-1" d="M782.985,40.452c-0.011-.493-0.121-2.61-1.145-3C779.731,36.643,774.52,36,771,36s-8.735.644-10.844,1.451c-1.025.393-1.134,2.512-1.146,3a1.337,1.337,0,0,0,.009.411l0.2,1a1.015,1.015,0,0,0,1.189.8l4.624-.9a1.015,1.015,0,0,0,.8-1.188l-0.24-1.241c0.426-.059.854-0.116,1.277-0.167l-0.138,2.008s-6.9,3.676-6.9,5.043v6.676h22.325V46.231c0-1.322-6.9-5.043-6.9-5.043l-0.138-2.008c0.424,0.052.852,0.108,1.278,0.167l-0.24,1.241a1.013,1.013,0,0,0,.8,1.188l4.624,0.9a1.013,1.013,0,0,0,1.188-.8l0.2-1A1.345,1.345,0,0,0,782.985,40.452ZM771,38.872c0.429,0,2.073.077,2.56,0.139,0-.009-0.159,1.984-0.163,1.978H768.6L768.45,39.01C769.38,38.924,770.251,38.872,771,38.872Zm0,11.3a3.007,3.007,0,1,1,3.223-3A3.117,3.117,0,0,1,771,50.169Z" transform="translate(-759 -36)"/>
</svg>
