<svg xmlns="http://www.w3.org/2000/svg" width="21.531" height="17" viewBox="0 0 21.531 17">
  <metadata><?xpacket begin="﻿" id="W5M0MpCehiHzreSzNTczkc9d"?>
<x:xmpmeta xmlns:x="adobe:ns:meta/" x:xmptk="Adobe XMP Core 5.6-c142 79.160924, 2017/07/13-01:06:39        ">
   <rdf:RDF xmlns:rdf="http://www.w3.org/1999/02/22-rdf-syntax-ns#">
      <rdf:Description rdf:about=""/>
   </rdf:RDF>
</x:xmpmeta>
                                                                                                    
                                                                                                    
                                                                                                    
                                                                                                    
                                                                                                    
                                                                                                    
                                                                                                    
                                                                                                    
                                                                                                    
                                                                                                    
                                                                                                    
                                                                                                    
                                                                                                    
                                                                                                    
                                                                                                    
                                                                                                    
                                                                                                    
                                                                                                    
                                                                                                    
                                                                                                    
                           
<?xpacket end="w"?></metadata>
<defs>
    <style>
      .cls-1 {
        fill: #22b3df;
        fill-rule: evenodd;
      }
    </style>
  </defs>
  <path id="Twitter" class="cls-1" d="M957.528,37.013a9.023,9.023,0,0,1-2.536.676,4.329,4.329,0,0,0,1.942-2.374,9,9,0,0,1-2.8,1.042A4.469,4.469,0,0,0,950.905,35a4.355,4.355,0,0,0-4.416,4.292,4.207,4.207,0,0,0,.114.978,12.661,12.661,0,0,1-9.1-4.484,4.182,4.182,0,0,0-.6,2.158,4.257,4.257,0,0,0,1.965,3.572,4.5,4.5,0,0,1-2-.537v0.054a4.328,4.328,0,0,0,3.543,4.209,4.562,4.562,0,0,1-2,.073A4.407,4.407,0,0,0,942.54,48.3a9.027,9.027,0,0,1-5.485,1.837,9.281,9.281,0,0,1-1.054-.06A12.767,12.767,0,0,0,942.771,52,12.3,12.3,0,0,0,955.337,39.79q0-.279-0.012-0.555A8.831,8.831,0,0,0,957.528,37.013Z" transform="translate(-936 -35)"/>
</svg>
