<svg xmlns="http://www.w3.org/2000/svg" width="58" height="45.81" viewBox="0 0 58 45.81">
  <defs>
    <style>
      .cls-1 {
        fill: #ebebeb;
        fill-rule: evenodd;
      }
    </style>
  </defs>
  <path class="cls-1" d="M116,2346.42a24.334,24.334,0,0,1-6.834,1.82,11.65,11.65,0,0,0,5.232-6.39,24.4,24.4,0,0,1-7.556,2.8,12.076,12.076,0,0,0-8.686-3.65,11.736,11.736,0,0,0-11.9,11.56,11.354,11.354,0,0,0,.308,2.64,34.128,34.128,0,0,1-24.526-12.08,11.254,11.254,0,0,0-1.611,5.81,11.5,11.5,0,0,0,5.293,9.63,12.068,12.068,0,0,1-5.39-1.45c0,0.05,0,.1,0,0.14a11.653,11.653,0,0,0,9.545,11.34,12,12,0,0,1-3.135.41,11.8,11.8,0,0,1-2.239-.21,11.874,11.874,0,0,0,11.115,8.03A24.638,24.638,0,0,1,58,2381.61a34.4,34.4,0,0,0,18.24,5.19c21.887,0,33.855-17.61,33.855-32.9,0-.5-0.011-1-0.034-1.49A23.8,23.8,0,0,0,116,2346.42Z" transform="translate(-58 -2341)"/>
</svg>
