<svg xmlns="http://www.w3.org/2000/svg" width="33" height="33" viewBox="0 0 33 33">
  <metadata><?xpacket begin="﻿" id="W5M0MpCehiHzreSzNTczkc9d"?>
<x:xmpmeta xmlns:x="adobe:ns:meta/" x:xmptk="Adobe XMP Core 5.6-c142 79.160924, 2017/07/13-01:06:39        ">
   <rdf:RDF xmlns:rdf="http://www.w3.org/1999/02/22-rdf-syntax-ns#">
      <rdf:Description rdf:about=""/>
   </rdf:RDF>
</x:xmpmeta>
                                                                                                    
                                                                                                    
                                                                                                    
                                                                                                    
                                                                                                    
                                                                                                    
                                                                                                    
                                                                                                    
                                                                                                    
                                                                                                    
                                                                                                    
                                                                                                    
                                                                                                    
                                                                                                    
                                                                                                    
                                                                                                    
                                                                                                    
                                                                                                    
                                                                                                    
                                                                                                    
                           
<?xpacket end="w"?></metadata>
<defs>
    <style>
      .cls-1 {
        fill: #b7b7b7;
        fill-rule: evenodd;
      }
    </style>
  </defs>
  <path id="Web_Designs" data-name="Web Designs" class="cls-1" d="M229,145.614L260.613,114H262l-33,33v-1.386ZM255.729,114h1.387L229,142.116V140.73Zm-4.95,0h1.387L229,137.166V135.78Zm-4.95,0h1.387L229,132.216V130.83Zm-4.95,0h1.387L229,127.266V125.88Zm-5.015,0h1.386L229,122.25v-1.386Zm-4.885,0h1.387L229,117.366V115.98Zm1.915,33L262,117.894v1.386L234.279,147h-1.385Zm5.28,0L262,123.174v1.386L239.56,147h-1.386Zm5.312,0L262,128.487v1.386L244.873,147h-1.387Zm5.281,0L262,133.767v1.386L250.153,147h-1.386Zm5.345,0L262,139.113V140.5l-6.5,6.5h-1.387Zm5.281,0L262,144.393v1.386L260.778,147h-1.385Z" transform="translate(-229 -114)"/>
</svg>
